<svg xmlns="http://www.w3.org/2000/svg" width="40" height="40" viewBox="0 0 448 512">
  <path fill="#25D366" d="M92.1 390.6c-15-13.9-34.5-21.5-55.2-21.5-44.5 0-80.7 36.2-80.7 80.7 0 20.7 7.7 40.1 21.6 55.1L4.2 576.4l72.8-23.5c14.6 8 31 12.3 47.9 12.3 55.3 0 100.2-45 100.2-100.2 0-26.7-10.4-51.8-29.3-70.7l-3.7-3.7z"/>
  <path fill="#FFF" d="M380.9 97.1C339 55.1 283.2 32 223.9 32c-122.4 0-222 99.6-222 222 0 39.1 10.2 77.3 29.6 111L0 480l117.7-30.9c32.4 17.7 68.9 27 106.1 27h.1c122.3 0 224.1-99.6 224.1-222 0-59.3-25.2-115-67.1-157zm-157 341.6c-33.1 0-65.6-8.9-94-25.7l-6.7-4-69.8 18.3L72 359.2l-4.4-7c-18.5-29.4-28.2-63.3-28.2-98.2 0-101.7 82.8-184.5 184.6-184.5 49.3 0 95.6 19.2 130.4 54.1 34.8 34.9 56.2 81.2 56.1 130.5 0 101.8-84.9 184.6-186.6 184.6zm101.2-138.2c-5.5-2.8-32.8-16.2-37.9-18s-8.8-2.8-12.4 2.8-14.1 18-17.3 21.6-6.4 4.1-11.9 1.3-23.1-8.5-44-27.1c-16.2-14.5-27.2-32.4-30.3-37.9s-.3-8.4 2.5-11.1c2.5-2.4 5.5-6.4 8.3-9.7s3.6-5.5 5.5-9.2 1-6.9-.5-9.7c-1.4-2.8-12.4-29.9-17-40.8-4.5-10.7-9.1-9.2-12.4-9.4h-10.6c-3.7 0-9.7 1.4-14.7 6.9s-19.3 18.9-19.3 46 20.2 53.4 23 57.1c2.8 3.7 39.8 60.7 96.3 85.1 13.4 5.8 23.9 9.2 32.1 11.9 13.5 4.3 25.8 3.7 35.5 2.3 10.8-1.6 32.8-13.4 37.4-26.4s4.6-24.1 3.2-26.4-5.5-4.2-11-7z"/>
</svg>